<svg xmlns="http://www.w3.org/2000/svg" version="1.1" xmlns:xlink="http://www.w3.org/1999/xlink" width="38" height="40"><svg width="38" height="40" viewBox="0 0 38 40" fill="none" xmlns="http://www.w3.org/2000/svg">
<path d="M2.89145 23.1945C2.8407 23.1805 2.71032 23.0239 2.69019 22.9574C2.8197 21.2616 3.27908 19.5833 3.60722 17.9111C3.58972 17.6179 3.35871 17.7239 3.20646 17.5427C2.51694 16.7272 2.93345 15.3289 3.89947 14.9176C3.6991 13.6103 3.85923 12.2427 3.81285 10.9153L0.19025 9.18275C-0.423141 8.7163 0.611137 8.33919 0.97777 8.15719C6.75818 5.2766 12.7504 2.90528 18.5482 0.0903296C19.012 -0.122301 19.3734 0.0850785 19.7934 0.254833C21.7211 1.03361 23.7967 2.09676 25.7103 2.97879C29.2577 4.61246 33.1533 6.27763 36.7409 8.07052C38.0429 8.72067 38.3938 8.73556 36.943 9.56075C34.7388 10.8146 32.2284 11.8419 30.0382 12.9856C29.7214 13.151 29.3898 13.3225 29.0967 13.5272V17.1585C24.8257 13.445 18.7407 12.8185 13.4556 14.5125C12.0092 14.9762 11.0187 15.7183 9.71748 16.5478C9.46904 16.7062 9.16978 16.9153 8.88363 16.9827V13.1326C8.57126 12.9401 7.20532 12.4842 7.04519 12.3022C6.94281 12.1858 6.92444 12.0616 6.97081 11.918C11.0773 10.4331 15.3264 9.32882 19.4767 8.01889C19.8765 7.51489 19.4469 6.77989 18.8387 6.84727C14.3385 8.3226 9.74815 9.50119 5.31089 11.1331C5.26364 12.1333 5.32139 13.1396 5.29952 14.1415C5.29427 14.3742 5.17089 14.6088 5.20589 14.8336C5.24439 15.0751 5.70553 15.2659 5.89366 15.5529C6.20079 16.0219 6.25679 16.5671 6.06429 17.0947C5.91116 17.5156 5.47015 17.7422 5.46227 18.1613C5.44039 19.3908 6.33292 21.4208 6.41342 22.7386C6.46942 22.8506 6.28042 23.1945 6.21479 23.1945H2.8897H2.89145Z" fill="#035C48"></path>
<ellipse cx="19.2586" cy="27.4071" rx="12.5926" ry="12.5926" fill="#035C48"></ellipse>
<ellipse cx="19.257" cy="27.4074" rx="7.40741" ry="7.40741" stroke="white" stroke-width="0.8" stroke-linecap="round" stroke-dasharray="3 3"></ellipse>
<path d="M21.4268 16.5088C22.8844 16.797 24.2395 17.3701 25.4316 18.168L25.0996 18.667C26.246 19.4345 27.2335 20.4219 28.001 21.5684L28.498 21.2344C29.2962 22.4264 29.8678 23.7816 30.1562 25.2393L29.5703 25.3564C29.7015 26.0195 29.7705 26.7056 29.7705 27.4082C29.7705 28.1109 29.7015 28.7968 29.5703 29.46L30.1572 29.5752C29.8689 31.033 29.2961 32.3878 28.498 33.5801L28.001 33.248C27.2334 34.3945 26.2461 35.3819 25.0996 36.1494L25.4316 36.6465C24.2394 37.4446 22.8846 38.0174 21.4268 38.3057L21.3115 37.7188C20.6484 37.8499 19.9624 37.9189 19.2598 37.9189C18.5572 37.9189 17.8711 37.8499 17.208 37.7188L17.0908 38.3047C15.6332 38.0162 14.278 37.4447 13.0859 36.6465L13.4199 36.1494C12.2735 35.3819 11.2861 34.3945 10.5186 33.248L10.0195 33.5801C9.22162 32.3879 8.64856 31.0329 8.36035 29.5752L8.94824 29.46C8.84984 28.9625 8.78723 28.4522 8.76172 27.9316L8.74805 27.4082C8.74805 26.7056 8.81711 26.0195 8.94824 25.3564L8.36133 25.2393C8.64973 23.7818 9.22156 22.4263 10.0195 21.2344L10.5186 21.5684C11.2861 20.4218 12.2734 19.4346 13.4199 18.667L13.0859 18.168C14.2779 17.37 15.6333 16.7982 17.0908 16.5098L17.208 17.0967C17.871 16.9655 18.5572 16.8965 19.2598 16.8965C19.9624 16.8965 20.6484 16.9655 21.3115 17.0967L21.4268 16.5088Z" stroke="#FED7A7" stroke-width="1.2" stroke-dasharray="5 5"></path>
</svg><style>@media (prefers-color-scheme: light) { :root { filter: none; } }
@media (prefers-color-scheme: dark) { :root { filter: none; } }
</style></svg>