<svg width="128" height="40" viewBox="0 0 128 40" fill="none" xmlns="http://www.w3.org/2000/svg">
<path d="M2.89145 23.1945C2.8407 23.1805 2.71032 23.0239 2.69019 22.9574C2.8197 21.2616 3.27908 19.5833 3.60722 17.9111C3.58972 17.6179 3.35871 17.7239 3.20646 17.5427C2.51694 16.7272 2.93345 15.3289 3.89947 14.9176C3.6991 13.6103 3.85923 12.2427 3.81285 10.9153L0.19025 9.18275C-0.423141 8.7163 0.611137 8.33919 0.97777 8.15719C6.75818 5.2766 12.7504 2.90528 18.5482 0.0903296C19.012 -0.122301 19.3734 0.0850785 19.7934 0.254833C21.7211 1.03361 23.7967 2.09676 25.7103 2.97879C29.2577 4.61246 33.1533 6.27763 36.7409 8.07052C38.0429 8.72067 38.3938 8.73556 36.943 9.56075C34.7388 10.8146 32.2284 11.8419 30.0382 12.9856C29.7214 13.151 29.3898 13.3225 29.0967 13.5272V17.1585C24.8257 13.445 18.7407 12.8185 13.4556 14.5125C12.0092 14.9762 11.0187 15.7183 9.71748 16.5478C9.46904 16.7062 9.16978 16.9153 8.88363 16.9827V13.1326C8.57126 12.9401 7.20532 12.4842 7.04519 12.3022C6.94281 12.1858 6.92444 12.0616 6.97081 11.918C11.0773 10.4331 15.3264 9.32882 19.4767 8.01889C19.8765 7.51489 19.4469 6.77989 18.8387 6.84727C14.3385 8.3226 9.74815 9.50119 5.31089 11.1331C5.26364 12.1333 5.32139 13.1396 5.29952 14.1415C5.29427 14.3742 5.17089 14.6088 5.20589 14.8336C5.24439 15.0751 5.70553 15.2659 5.89366 15.5529C6.20079 16.0219 6.25679 16.5671 6.06429 17.0947C5.91116 17.5156 5.47015 17.7422 5.46227 18.1613C5.44039 19.3908 6.33292 21.4208 6.41342 22.7386C6.46942 22.8506 6.28042 23.1945 6.21479 23.1945H2.8897H2.89145Z" fill="#035C48"/>
<ellipse cx="19.2586" cy="27.4071" rx="12.5926" ry="12.5926" fill="#035C48"/>
<ellipse cx="19.257" cy="27.4074" rx="7.40741" ry="7.40741" stroke="white" stroke-width="0.8" stroke-linecap="round" stroke-dasharray="3 3"/>
<path d="M21.4268 16.5088C22.8844 16.797 24.2395 17.3701 25.4316 18.168L25.0996 18.667C26.246 19.4345 27.2335 20.4219 28.001 21.5684L28.498 21.2344C29.2962 22.4264 29.8678 23.7816 30.1562 25.2393L29.5703 25.3564C29.7015 26.0195 29.7705 26.7056 29.7705 27.4082C29.7705 28.1109 29.7015 28.7968 29.5703 29.46L30.1572 29.5752C29.8689 31.033 29.2961 32.3878 28.498 33.5801L28.001 33.248C27.2334 34.3945 26.2461 35.3819 25.0996 36.1494L25.4316 36.6465C24.2394 37.4446 22.8846 38.0174 21.4268 38.3057L21.3115 37.7188C20.6484 37.8499 19.9624 37.9189 19.2598 37.9189C18.5572 37.9189 17.8711 37.8499 17.208 37.7188L17.0908 38.3047C15.6332 38.0162 14.278 37.4447 13.0859 36.6465L13.4199 36.1494C12.2735 35.3819 11.2861 34.3945 10.5186 33.248L10.0195 33.5801C9.22162 32.3879 8.64856 31.0329 8.36035 29.5752L8.94824 29.46C8.84984 28.9625 8.78723 28.4522 8.76172 27.9316L8.74805 27.4082C8.74805 26.7056 8.81711 26.0195 8.94824 25.3564L8.36133 25.2393C8.64973 23.7818 9.22156 22.4263 10.0195 21.2344L10.5186 21.5684C11.2861 20.4218 12.2734 19.4346 13.4199 18.667L13.0859 18.168C14.2779 17.37 15.6333 16.7982 17.0908 16.5098L17.208 17.0967C17.871 16.9655 18.5572 16.8965 19.2598 16.8965C19.9624 16.8965 20.6484 16.9655 21.3115 17.0967L21.4268 16.5088Z" stroke="#FED7A7" stroke-width="1.2" stroke-dasharray="5 5"/>
<path d="M48.9445 15.2569C48.1805 15.2569 47.469 15.1321 46.81 14.8826C46.1606 14.6235 45.5923 14.2636 45.1052 13.803C44.6277 13.3327 44.2553 12.7809 43.9878 12.1475C43.7204 11.5142 43.5867 10.8232 43.5867 10.0747C43.5867 9.32614 43.7204 8.63518 43.9878 8.0018C44.2553 7.36842 44.6325 6.82141 45.1196 6.36077C45.6066 5.89054 46.1749 5.53066 46.8243 5.28115C47.4738 5.02204 48.1853 4.89249 48.9589 4.89249C49.7802 4.89249 50.5299 5.03644 51.208 5.32434C51.8861 5.60264 52.4591 6.02009 52.9271 6.5767L51.7237 7.7139C51.3608 7.32044 50.9549 7.02774 50.506 6.83581C50.0572 6.63428 49.5701 6.53351 49.0448 6.53351C48.5195 6.53351 48.0372 6.61988 47.5979 6.79262C47.1682 6.96536 46.7909 7.21008 46.4662 7.52677C46.151 7.84345 45.9027 8.21772 45.7213 8.64957C45.5493 9.08142 45.4634 9.55646 45.4634 10.0747C45.4634 10.5929 45.5493 11.0679 45.7213 11.4998C45.9027 11.9316 46.151 12.3059 46.4662 12.6226C46.7909 12.9393 47.1682 13.184 47.5979 13.3567C48.0372 13.5295 48.5195 13.6158 49.0448 13.6158C49.5701 13.6158 50.0572 13.5199 50.506 13.3279C50.9549 13.1264 51.3608 12.8241 51.7237 12.4211L52.9271 13.5726C52.4591 14.1197 51.8861 14.5371 51.208 14.825C50.5299 15.1129 49.7754 15.2569 48.9445 15.2569Z" fill="white"/>
<path d="M59.0569 15.1129V13.5583L58.9566 13.2272V10.5065C58.9566 9.97871 58.7991 9.57085 58.4839 9.28295C58.1687 8.98545 57.6912 8.83671 57.0513 8.83671C56.6215 8.83671 56.1966 8.90388 55.7763 9.03824C55.3657 9.17259 55.0171 9.35972 54.7306 9.59964L54.0286 8.2897C54.4393 7.97301 54.9263 7.73789 55.4898 7.58435C56.0628 7.4212 56.655 7.33963 57.2662 7.33963C58.3741 7.33963 59.2288 7.60834 59.8305 8.14575C60.4417 8.67356 60.7474 9.49408 60.7474 10.6073V15.1129H59.0569ZM56.6502 15.2137C56.0772 15.2137 55.5758 15.1177 55.146 14.9258C54.7162 14.7242 54.382 14.4507 54.1432 14.1053C53.914 13.7502 53.7994 13.3519 53.7994 12.9105C53.7994 12.4786 53.8997 12.09 54.1002 11.7445C54.3103 11.399 54.6494 11.1255 55.1174 10.924C55.5853 10.7224 56.2061 10.6217 56.9797 10.6217H59.2002V11.8165H57.1086C56.4974 11.8165 56.0867 11.9172 55.8766 12.1188C55.6665 12.3107 55.5614 12.5506 55.5614 12.8385C55.5614 13.1648 55.6904 13.4239 55.9482 13.6158C56.2061 13.8078 56.5642 13.9037 57.0227 13.9037C57.462 13.9037 57.8536 13.803 58.1974 13.6014C58.5507 13.3999 58.8038 13.1024 58.9566 12.709L59.2575 13.7886C59.0856 14.2396 58.7752 14.5899 58.3263 14.8394C57.887 15.0889 57.3283 15.2137 56.6502 15.2137Z" fill="white"/>
<path d="M65.4092 15.2137C64.7694 15.2137 64.1534 15.1321 63.5612 14.969C62.9787 14.7962 62.5155 14.5899 62.1716 14.35L62.8593 12.9825C63.2031 13.2032 63.6138 13.3855 64.0913 13.5295C64.5688 13.6734 65.0463 13.7454 65.5239 13.7454C66.0873 13.7454 66.4932 13.6686 66.7415 13.5151C66.9994 13.3615 67.1283 13.1552 67.1283 12.8961C67.1283 12.685 67.0424 12.5266 66.8705 12.4211C66.6986 12.3059 66.4741 12.2195 66.1972 12.1619C65.9202 12.1044 65.6098 12.0516 65.266 12.0036C64.9317 11.9556 64.5927 11.8932 64.2489 11.8165C63.9146 11.7301 63.609 11.6101 63.332 11.4566C63.0551 11.2934 62.8306 11.0775 62.6587 10.8088C62.4868 10.5401 62.4009 10.185 62.4009 9.74359C62.4009 9.25416 62.5393 8.83191 62.8163 8.47683C63.0933 8.11216 63.4801 7.83386 63.9767 7.64192C64.4829 7.4404 65.0798 7.33963 65.7674 7.33963C66.2831 7.33963 66.8036 7.39721 67.3289 7.51237C67.8542 7.62753 68.2887 7.79067 68.6325 8.0018L67.9449 9.36932C67.582 9.1486 67.2143 8.99985 66.8418 8.92308C66.4789 8.83671 66.116 8.79352 65.7531 8.79352C65.2087 8.79352 64.8028 8.87509 64.5354 9.03824C64.2775 9.20138 64.1486 9.40771 64.1486 9.65722C64.1486 9.88754 64.2345 10.0603 64.4065 10.1754C64.5784 10.2906 64.8028 10.3818 65.0798 10.4489C65.3567 10.5161 65.6623 10.5737 65.9966 10.6217C66.3404 10.6601 66.6795 10.7224 67.0137 10.8088C67.348 10.8952 67.6536 11.0151 67.9306 11.1687C68.2171 11.3126 68.4463 11.519 68.6182 11.7877C68.7901 12.0564 68.8761 12.4067 68.8761 12.8385C68.8761 13.3183 68.7328 13.7358 68.4463 14.0909C68.1693 14.4459 67.773 14.7242 67.2573 14.9258C66.7415 15.1177 66.1255 15.2137 65.4092 15.2137Z" fill="white"/>
<path d="M70.4182 15.1129V7.426H72.2089V15.1129H70.4182ZM71.3207 6.15924C70.9865 6.15924 70.7095 6.05368 70.4898 5.84255C70.2797 5.63143 70.1747 5.37712 70.1747 5.07962C70.1747 4.77253 70.2797 4.51822 70.4898 4.31669C70.7095 4.10556 70.9865 4 71.3207 4C71.655 4 71.9272 4.10076 72.1373 4.30229C72.357 4.49423 72.4668 4.73894 72.4668 5.03644C72.4668 5.35313 72.3617 5.62183 72.1516 5.84255C71.9415 6.05368 71.6645 6.15924 71.3207 6.15924Z" fill="white"/>
<path d="M74.5592 15.1129V7.426H76.264V9.49888L75.9632 8.8655C76.2306 8.37607 76.6174 8.0018 77.1235 7.74269C77.6393 7.47398 78.2314 7.33963 78.8999 7.33963C79.5112 7.33963 80.0555 7.45959 80.5331 7.6995C81.0201 7.93942 81.4021 8.30889 81.6791 8.80792C81.9561 9.29735 82.0946 9.93072 82.0946 10.7081V15.1129H80.3038V10.9384C80.3038 10.257 80.1415 9.74839 79.8168 9.41251C79.5016 9.07662 79.0575 8.90868 78.4845 8.90868C78.0643 8.90868 77.6918 8.99505 77.3671 9.16779C77.0424 9.34053 76.7893 9.59964 76.6078 9.94512C76.4359 10.281 76.3499 10.7081 76.3499 11.2263V15.1129H74.5592Z" fill="white"/>
<path d="M87.8183 15.2137C87.0352 15.2137 86.338 15.0457 85.7268 14.7099C85.1156 14.3644 84.6333 13.8941 84.2799 13.2991C83.9265 12.7042 83.7498 12.0276 83.7498 11.2695C83.7498 10.5017 83.9265 9.82516 84.2799 9.23977C84.6333 8.64477 85.1156 8.17934 85.7268 7.84345C86.338 7.50757 87.0352 7.33963 87.8183 7.33963C88.611 7.33963 89.313 7.50757 89.9242 7.84345C90.545 8.17934 91.0273 8.63998 91.3711 9.22537C91.7245 9.81077 91.9012 10.4921 91.9012 11.2695C91.9012 12.0276 91.7245 12.7042 91.3711 13.2991C91.0273 13.8941 90.545 14.3644 89.9242 14.7099C89.313 15.0457 88.611 15.2137 87.8183 15.2137ZM87.8183 13.6734C88.2577 13.6734 88.6492 13.5774 88.9931 13.3855C89.3369 13.1936 89.6043 12.9153 89.7953 12.5506C89.9959 12.1859 90.0961 11.7589 90.0961 11.2695C90.0961 10.7704 89.9959 10.3434 89.7953 9.9883C89.6043 9.62363 89.3369 9.34533 88.9931 9.1534C88.6492 8.96146 88.2624 8.8655 87.8327 8.8655C87.3934 8.8655 87.0018 8.96146 86.658 9.1534C86.3237 9.34533 86.0563 9.62363 85.8557 9.9883C85.6552 10.3434 85.5549 10.7704 85.5549 11.2695C85.5549 11.7589 85.6552 12.1859 85.8557 12.5506C86.0563 12.9153 86.3237 13.1936 86.658 13.3855C87.0018 13.5774 87.3886 13.6734 87.8183 13.6734Z" fill="white"/>
<path d="M98.427 15.2569C97.6629 15.2569 96.9514 15.1321 96.2924 14.8826C95.643 14.6235 95.0748 14.2636 94.5877 13.803C94.1102 13.3327 93.7377 12.7809 93.4703 12.1475C93.2029 11.5142 93.0692 10.8232 93.0692 10.0747C93.0692 9.32614 93.2029 8.63518 93.4703 8.0018C93.7377 7.36842 94.1149 6.82141 94.602 6.36077C95.0891 5.89054 95.6573 5.53066 96.3068 5.28115C96.9562 5.02204 97.6677 4.89249 98.4413 4.89249C99.2626 4.89249 100.012 5.03644 100.69 5.32434C101.369 5.60264 101.942 6.02009 102.41 6.5767L101.206 7.7139C100.843 7.32044 100.437 7.02774 99.9885 6.83581C99.5396 6.63428 99.0525 6.53351 98.5273 6.53351C98.002 6.53351 97.5197 6.61988 97.0804 6.79262C96.6506 6.96536 96.2733 7.21008 95.9486 7.52677C95.6335 7.84345 95.3852 8.21772 95.2037 8.64957C95.0318 9.08142 94.9458 9.55646 94.9458 10.0747C94.9458 10.5929 95.0318 11.0679 95.2037 11.4998C95.3852 11.9316 95.6335 12.3059 95.9486 12.6226C96.2733 12.9393 96.6506 13.184 97.0804 13.3567C97.5197 13.5295 98.002 13.6158 98.5273 13.6158C99.0525 13.6158 99.5396 13.5199 99.9885 13.3279C100.437 13.1264 100.843 12.8241 101.206 12.4211L102.41 13.5726C101.942 14.1197 101.369 14.5371 100.69 14.825C100.012 15.1129 99.2579 15.2569 98.427 15.2569Z" fill="white"/>
<path d="M103.896 15.1129V7.426H105.601V9.54206L105.4 8.92308C105.63 8.40486 105.988 8.0114 106.475 7.74269C106.971 7.47398 107.587 7.33963 108.323 7.33963V9.05263C108.246 9.03344 108.175 9.02384 108.108 9.02384C108.041 9.01424 107.974 9.00945 107.907 9.00945C107.229 9.00945 106.69 9.21098 106.289 9.61403C105.887 10.0075 105.687 10.5977 105.687 11.3846V15.1129H103.896Z" fill="white"/>
<path d="M114.009 15.1129V13.5583L113.909 13.2272V10.5065C113.909 9.97871 113.752 9.57085 113.436 9.28295C113.121 8.98545 112.644 8.83671 112.004 8.83671C111.574 8.83671 111.149 8.90388 110.729 9.03824C110.318 9.17259 109.97 9.35972 109.683 9.59964L108.981 8.2897C109.392 7.97301 109.879 7.73789 110.442 7.58435C111.015 7.4212 111.607 7.33963 112.219 7.33963C113.327 7.33963 114.181 7.60834 114.783 8.14575C115.394 8.67356 115.7 9.49408 115.7 10.6073V15.1129H114.009ZM111.603 15.2137C111.03 15.2137 110.528 15.1177 110.099 14.9258C109.669 14.7242 109.334 14.4507 109.096 14.1053C108.866 13.7502 108.752 13.3519 108.752 12.9105C108.752 12.4786 108.852 12.09 109.053 11.7445C109.263 11.399 109.602 11.1255 110.07 10.924C110.538 10.7224 111.159 10.6217 111.932 10.6217H114.153V11.8165H112.061C111.45 11.8165 111.039 11.9172 110.829 12.1188C110.619 12.3107 110.514 12.5506 110.514 12.8385C110.514 13.1648 110.643 13.4239 110.901 13.6158C111.159 13.8078 111.517 13.9037 111.975 13.9037C112.415 13.9037 112.806 13.803 113.15 13.6014C113.503 13.3999 113.756 13.1024 113.909 12.709L114.21 13.7886C114.038 14.2396 113.728 14.5899 113.279 14.8394C112.839 15.0889 112.281 15.2137 111.603 15.2137Z" fill="white"/>
<path d="M118.242 15.1129V6.99415C118.242 6.18803 118.476 5.54506 118.944 5.06523C119.421 4.5758 120.099 4.33108 120.978 4.33108C121.293 4.33108 121.589 4.36467 121.866 4.43185C122.152 4.49903 122.391 4.60459 122.582 4.74854L122.095 6.10166C121.961 5.9961 121.809 5.91933 121.637 5.87134C121.465 5.81377 121.288 5.78498 121.107 5.78498C120.734 5.78498 120.452 5.89054 120.261 6.10166C120.07 6.30319 119.975 6.61029 119.975 7.02294V7.88664L120.032 8.69276V15.1129H118.242ZM116.981 8.92308V7.48358H122.081V8.92308H116.981Z" fill="white"/>
<path d="M126.166 15.2137C125.325 15.2137 124.676 14.9978 124.217 14.5659C123.759 14.1245 123.53 13.4767 123.53 12.6226V5.7274H125.32V12.5794C125.32 12.9441 125.411 13.2272 125.593 13.4287C125.784 13.6302 126.046 13.731 126.381 13.731C126.782 13.731 127.116 13.6254 127.383 13.4143L127.885 14.6955C127.675 14.8682 127.417 14.9978 127.111 15.0841C126.806 15.1705 126.49 15.2137 126.166 15.2137ZM122.269 8.8655V7.426H127.369V8.8655H122.269Z" fill="white"/>
<path d="M42.8848 33.1066L47.3974 23.0301H49.2311L53.758 33.1066H51.8097L47.9274 24.0234H48.6724L44.8044 33.1066H42.8848ZM44.962 30.7746L45.4634 29.3063H50.8785L51.3799 30.7746H44.962Z" fill="#FED7A7"/>
<path d="M58.3012 33.2074C57.499 33.2074 56.7827 33.0394 56.1524 32.7036C55.5316 32.3581 55.0445 31.8878 54.6912 31.2928C54.3378 30.6979 54.1611 30.0213 54.1611 29.2632C54.1611 28.4954 54.3378 27.8189 54.6912 27.2335C55.0445 26.6385 55.5316 26.173 56.1524 25.8372C56.7827 25.5013 57.499 25.3333 58.3012 25.3333C59.0462 25.3333 59.7004 25.4869 60.2639 25.794C60.8369 26.0915 61.2714 26.5329 61.5675 27.1183L60.1922 27.9244C59.963 27.5598 59.6813 27.291 59.347 27.1183C59.0223 26.9456 58.6689 26.8592 58.2869 26.8592C57.8476 26.8592 57.4512 26.9552 57.0979 27.1471C56.7445 27.339 56.4675 27.6173 56.267 27.982C56.0664 28.3371 55.9661 28.7641 55.9661 29.2632C55.9661 29.7622 56.0664 30.194 56.267 30.5587C56.4675 30.9138 56.7445 31.1873 57.0979 31.3792C57.4512 31.5711 57.8476 31.6671 58.2869 31.6671C58.6689 31.6671 59.0223 31.5807 59.347 31.408C59.6813 31.2353 59.963 30.9666 60.1922 30.6019L61.5675 31.408C61.2714 31.9838 60.8369 32.43 60.2639 32.7467C59.7004 33.0538 59.0462 33.2074 58.3012 33.2074Z" fill="#FED7A7"/>
<path d="M67.8286 33.1066V31.552L67.7283 31.2209V28.5002C67.7283 27.9724 67.5708 27.5646 67.2556 27.2767C66.9404 26.9792 66.4629 26.8304 65.823 26.8304C65.3932 26.8304 64.9683 26.8976 64.548 27.0319C64.1374 27.1663 63.7888 27.3534 63.5023 27.5933L62.8003 26.2834C63.211 25.9667 63.698 25.7316 64.2615 25.578C64.8345 25.4149 65.4267 25.3333 66.0379 25.3333C67.1458 25.3333 68.0005 25.602 68.6022 26.1395C69.2134 26.6673 69.519 27.4878 69.519 28.601V33.1066H67.8286ZM65.4219 33.2074C64.8489 33.2074 64.3475 33.1114 63.9177 32.9195C63.4879 32.7179 63.1537 32.4444 62.9149 32.099C62.6857 31.7439 62.5711 31.3456 62.5711 30.9042C62.5711 30.4723 62.6714 30.0837 62.8719 29.7382C63.082 29.3927 63.4211 29.1192 63.889 28.9177C64.357 28.7161 64.9778 28.6154 65.7514 28.6154H67.9719V29.8102H65.8803C65.2691 29.8102 64.8584 29.9109 64.6483 30.1125C64.4382 30.3044 64.3331 30.5443 64.3331 30.8322C64.3331 31.1585 64.4621 31.4176 64.7199 31.6095C64.9778 31.8015 65.3359 31.8974 65.7944 31.8974C66.2337 31.8974 66.6253 31.7967 66.9691 31.5951C67.3224 31.3936 67.5755 31.0961 67.7283 30.7027L68.0292 31.7823C67.8573 32.2333 67.5469 32.5836 67.098 32.8331C66.6587 33.0826 66.1 33.2074 65.4219 33.2074Z" fill="#FED7A7"/>
<path d="M75.0688 33.2074C74.3334 33.2074 73.6697 33.0442 73.0775 32.7179C72.495 32.3821 72.0365 31.9214 71.7023 31.336C71.368 30.7506 71.2009 30.0597 71.2009 29.2632C71.2009 28.4666 71.368 27.7757 71.7023 27.1903C72.0365 26.6049 72.495 26.149 73.0775 25.8228C73.6697 25.4965 74.3334 25.3333 75.0688 25.3333C75.7087 25.3333 76.2817 25.4773 76.7879 25.7652C77.2941 26.0435 77.6952 26.4705 77.9912 27.0463C78.2873 27.6221 78.4353 28.3611 78.4353 29.2632C78.4353 30.1556 78.2921 30.8946 78.0056 31.48C77.7191 32.0558 77.3227 32.4876 76.8165 32.7755C76.3104 33.0634 75.7278 33.2074 75.0688 33.2074ZM75.2837 31.6671C75.7135 31.6671 76.0955 31.5711 76.4297 31.3792C76.7736 31.1873 77.0458 30.909 77.2463 30.5443C77.4564 30.1796 77.5615 29.7526 77.5615 29.2632C77.5615 28.7641 77.4564 28.3371 77.2463 27.982C77.0458 27.6173 76.7736 27.339 76.4297 27.1471C76.0955 26.9552 75.7135 26.8592 75.2837 26.8592C74.8539 26.8592 74.4671 26.9552 74.1233 27.1471C73.789 27.339 73.5169 27.6173 73.3067 27.982C73.1062 28.3371 73.0059 28.7641 73.0059 29.2632C73.0059 29.7526 73.1062 30.1796 73.3067 30.5443C73.5169 30.909 73.789 31.1873 74.1233 31.3792C74.4671 31.5711 74.8539 31.6671 75.2837 31.6671ZM77.6045 33.1066V31.2928L77.6761 29.2488L77.5328 27.2047V22.4256H79.3092V33.1066H77.6045Z" fill="#FED7A7"/>
<path d="M85.2619 33.2074C84.4119 33.2074 83.6669 33.0394 83.0271 32.7036C82.3967 32.3581 81.9049 31.8878 81.5515 31.2928C81.2077 30.6979 81.0358 30.0213 81.0358 29.2632C81.0358 28.4954 81.2029 27.8189 81.5372 27.2335C81.881 26.6385 82.349 26.173 82.9411 25.8372C83.5428 25.5013 84.2257 25.3333 84.9897 25.3333C85.7346 25.3333 86.3984 25.4965 86.981 25.8228C87.5635 26.149 88.022 26.6097 88.3562 27.2047C88.6905 27.7997 88.8576 28.5002 88.8576 29.3063C88.8576 29.3831 88.8529 29.4695 88.8433 29.5655C88.8433 29.6614 88.8385 29.7526 88.829 29.839H82.454V28.6442H87.8835L87.1815 29.0184C87.1911 28.577 87.1003 28.1883 86.9093 27.8525C86.7183 27.5166 86.4557 27.2527 86.1214 27.0607C85.7967 26.8688 85.4195 26.7728 84.9897 26.7728C84.5504 26.7728 84.1636 26.8688 83.8293 27.0607C83.5046 27.2527 83.2467 27.5214 83.0557 27.8668C82.8743 28.2027 82.7835 28.601 82.7835 29.0616V29.3495C82.7835 29.8102 82.8886 30.218 83.0987 30.5731C83.3088 30.9282 83.6049 31.2017 83.9869 31.3936C84.3689 31.5855 84.8082 31.6815 85.3049 31.6815C85.7346 31.6815 86.1214 31.6143 86.4652 31.48C86.8091 31.3456 87.1147 31.1345 87.3821 30.8466L88.3419 31.955C87.9981 32.3581 87.5635 32.67 87.0383 32.8907C86.5225 33.1018 85.9304 33.2074 85.2619 33.2074Z" fill="#FED7A7"/>
<path d="M90.5777 33.1066V25.4197H92.2825V27.4638L91.9816 26.8592C92.2395 26.3602 92.612 25.9811 93.099 25.722C93.5957 25.4629 94.1591 25.3333 94.7895 25.3333C95.5058 25.3333 96.1265 25.5109 96.6518 25.8659C97.1866 26.221 97.54 26.7584 97.7119 27.4782L97.01 27.2335C97.2583 26.6577 97.6689 26.197 98.242 25.8516C98.815 25.5061 99.4788 25.3333 100.233 25.3333C100.844 25.3333 101.384 25.4533 101.852 25.6932C102.33 25.9331 102.702 26.3026 102.969 26.8016C103.237 27.291 103.371 27.9244 103.371 28.7018V33.1066H101.58V28.9321C101.58 28.2507 101.432 27.7421 101.136 27.4062C100.84 27.0703 100.415 26.9024 99.8608 26.9024C99.4692 26.9024 99.1206 26.9888 98.815 27.1615C98.5189 27.3342 98.285 27.5885 98.113 27.9244C97.9507 28.2603 97.8695 28.6874 97.8695 29.2056V33.1066H96.0788V28.9321C96.0788 28.2507 95.9308 27.7421 95.6347 27.4062C95.3386 27.0703 94.9136 26.9024 94.3597 26.9024C93.9681 26.9024 93.6195 26.9888 93.3139 27.1615C93.0179 27.3342 92.7839 27.5885 92.612 27.9244C92.4496 28.2603 92.3684 28.6874 92.3684 29.2056V33.1066H90.5777Z" fill="#FED7A7"/>
<path d="M106.107 36C105.735 36 105.362 35.9376 104.99 35.8129C104.617 35.6881 104.307 35.5154 104.059 35.2946L104.775 33.9703C104.957 34.1335 105.162 34.263 105.391 34.359C105.62 34.4549 105.854 34.5029 106.093 34.5029C106.418 34.5029 106.68 34.4214 106.881 34.2582C107.081 34.0951 107.268 33.8216 107.44 33.4377L107.884 32.43L108.027 32.2141L110.921 25.4197H112.64L109.058 33.7256C108.82 34.3014 108.552 34.7572 108.256 35.0931C107.97 35.429 107.645 35.6641 107.282 35.7985C106.929 35.9328 106.537 36 106.107 36ZM107.683 33.3801L104.231 25.4197H106.093L108.901 32.0558L107.683 33.3801Z" fill="#FED7A7"/>
</svg>
